# xmcd
#
# Track frame offsets:
#	150
#	14259
#	30308
#	52390
#	69936
#	86304
#	111418
#	127788
#	155387
#	167988
#	198821
#	214717
#	238879
#
# Disc length: 3429 seconds
#
# Revision: 0
# Processed by: cddbd v1.4PL0 Copyright (c) Steve Scherf et al.
# Submitted via: dBpowerAMP V4.0
#
DISCID=a70d630d
DTITLE=ADS Big Band - ADventureS
DYEAR=1998
DGENRE=Blues
TTITLE0=New age, New World
TTITLE1=Birdland
TTITLE2=ADventureS
TTITLE3=Beauty And The Beast
TTITLE4=Backyard Blues
TTITLE5=Easy Minor
TTITLE6=So ein edler Mann
TTITLE7=Stolen Moments
TTITLE8=Route 66
TTITLE9=Whatever It Takes
TTITLE10=Love Takes Time
TTITLE11=The Murphy Strut
TTITLE12=Molly Meander
EXTD=Big Band des Gymnasium August-Dicke-Schule\nSolingen, Germany\nRecorded Feb. 1998
EXTT0=
EXTT1=
EXTT2=
EXTT3=
EXTT4=
EXTT5=
EXTT6=
EXTT7=
EXTT8=
EXTT9=
EXTT10=
EXTT11=
EXTT12=
PLAYORDER=
